<svg width="69" height="61" viewBox="0 0 69 61" fill="none" xmlns="http://www.w3.org/2000/svg">
<g clip-path="url(#clip0_1_1095)">
<path d="M13.5322 39.202C13.1476 39.202 12.7574 39.0572 12.462 38.762L5.36634 31.6835C-1.08272 25.1397 -1.84078 15.2932 3.52136 7.73018C4.0063 7.05073 4.9483 6.88923 5.63389 7.36818C6.31391 7.85271 6.47556 8.79391 5.9962 9.47893C2.31739 14.6695 1.22489 23.1626 7.51789 29.5449L14.6024 36.6123C15.1932 37.2027 15.1932 38.1606 14.6024 38.7509C14.307 39.0461 13.9168 39.1964 13.5322 39.1964V39.202Z" fill="#8E3884"/>
<path d="M58.2305 36.4396C57.8403 36.4396 57.4557 36.2892 57.1603 35.9941C56.5694 35.4037 56.5694 34.4458 57.1603 33.8555L61.4857 29.5393C65.956 25.0059 67.1934 18.5011 64.713 12.5754C62.2437 6.68867 56.7478 3.02967 50.3656 3.02967C43.9834 3.02967 38.298 6.85575 35.9012 12.7814C35.6671 13.3551 35.1153 13.7282 34.4966 13.7282C33.8779 13.7282 33.326 13.3551 33.0919 12.7814C30.6951 6.85575 25.0153 3.02967 18.6275 3.02967C14.8651 3.02967 11.4148 4.26048 8.65571 6.58842C8.01471 7.12864 7.06156 7.0451 6.52089 6.40464C5.98022 5.76417 6.06382 4.81183 6.70483 4.27162C10.0158 1.47585 14.1405 0 18.6275 0C25.2048 0 31.1466 3.39167 34.4966 8.85511C37.8465 3.39167 43.7939 0 50.3656 0C57.9964 0 64.5625 4.37186 67.5111 11.4058C70.4765 18.4788 68.9938 26.2423 63.6372 31.6723L59.3007 35.9996C59.0053 36.2948 58.6207 36.4396 58.2305 36.4396Z" fill="#8E3884"/>
<path d="M28.7885 28.9931C27.1832 28.9931 25.7228 28.5364 24.8031 27.6899C23.4319 26.4313 23.2591 24.2871 24.4074 22.8112L33.2978 11.2829C33.8106 10.6202 34.7582 10.4976 35.4215 11.01C36.0848 11.5224 36.2074 12.4691 35.6946 13.1319L26.7986 24.6658C26.6091 24.9108 26.6314 25.2617 26.8487 25.4622C27.2278 25.8131 28.5042 26.1695 30.0426 25.8242C31.1574 25.5792 32.7404 24.521 33.2532 24.1367L41.3522 17.8992C41.7201 17.6151 42.1994 17.5149 42.6509 17.6318C42.6844 17.6374 46.3576 18.5173 50.5046 17.1417C51.2961 16.88 52.1545 17.3088 52.4221 18.0997C52.684 18.8905 52.2548 19.7482 51.4633 20.0155C47.6006 21.2964 44.1392 20.9622 42.6621 20.7172L35.0926 26.5482C34.8362 26.7431 32.6568 28.3526 30.7004 28.787C30.0538 28.9318 29.4072 28.9987 28.7829 28.9987L28.7885 28.9931Z" fill="#8E3884"/>
<path d="M46.4188 54.1608C45.0922 54.1608 43.7711 53.6595 42.7623 52.6515L40.9229 50.7914C40.3376 50.1955 40.3432 49.2375 40.934 48.6528C41.5304 48.068 42.4891 48.0736 43.0744 48.6639L44.9082 50.5185C45.7388 51.3483 47.0932 51.3483 47.9293 50.5129C48.7654 49.6775 48.7654 48.3186 47.9293 47.4888L34.6912 34.2396C34.1003 33.6492 34.1003 32.6913 34.6912 32.101C35.282 31.5106 36.2407 31.5106 36.8316 32.101L50.0697 45.3502C52.0875 47.3663 52.0875 50.641 50.0697 52.6571C49.0608 53.6651 47.7398 54.1663 46.4132 54.1663L46.4188 54.1608Z" fill="#8E3884"/>
<path d="M51.5926 48.9925C50.266 48.9925 48.945 48.4913 47.9361 47.4832C47.3453 46.8929 47.3453 45.935 47.9361 45.3446C48.5269 44.7543 49.4857 44.7543 50.0765 45.3446C50.9126 46.18 52.2726 46.18 53.1032 45.3446C53.51 44.9381 53.733 44.4034 53.733 43.8298C53.733 43.2562 53.51 42.7215 53.1032 42.315L39.865 29.0657C39.2742 28.4754 39.2742 27.5175 39.865 26.9271C40.4558 26.3368 41.4146 26.3368 42.0054 26.9271L55.2436 40.1764C56.219 41.151 56.7597 42.4486 56.7597 43.8298C56.7597 45.211 56.2246 46.5086 55.2436 47.4832C54.2347 48.4913 52.9136 48.9925 51.587 48.9925H51.5926Z" fill="#8E3884"/>
<path d="M56.7641 43.8295C55.3818 43.8295 54.0831 43.2893 53.1076 42.3147C52.5168 41.7243 52.5168 40.7664 53.1076 40.1761C53.6985 39.5857 54.6572 39.5857 55.248 40.1761C56.0562 40.9836 57.4665 40.9836 58.2747 40.1761C58.6816 39.7695 58.899 39.2349 58.899 38.6612C58.899 38.0876 58.676 37.553 58.2747 37.1464L41.2128 20.1713C40.622 19.581 40.6164 18.6231 41.2128 18.0327C41.8036 17.4424 42.7624 17.4368 43.3532 18.0327L60.4151 35.0134C61.3961 35.9936 61.9312 37.2912 61.9312 38.6668C61.9312 40.0424 61.3905 41.3456 60.4151 42.3202C59.4396 43.2949 58.1409 43.8351 56.7586 43.8351L56.7641 43.8295Z" fill="#8E3884"/>
<path d="M15.7337 45.9746C14.4071 45.9746 13.0805 45.4734 12.0661 44.4598C10.0483 42.4437 10.0483 39.169 12.0661 37.1529L18.7938 30.8096C20.8395 28.877 24.0055 28.9272 25.9954 30.9154C26.9931 31.9123 27.5282 33.2378 27.5115 34.6412C27.4892 36.0502 26.9151 37.359 25.8895 38.3225L19.3512 44.4876C18.3646 45.4734 17.0548 45.9691 15.7393 45.9691L15.7337 45.9746ZM22.3389 32.4246C21.8149 32.4246 21.2854 32.6196 20.8673 33.0094L14.173 39.3194C13.3704 40.1213 13.3704 41.4802 14.2065 42.3156C15.0147 43.1232 16.4249 43.1232 17.2331 42.3156L23.8048 36.1226C24.2284 35.7216 24.4681 35.1814 24.4737 34.5966C24.4848 34.0119 24.2619 33.4661 23.8494 33.054C23.4314 32.6363 22.8851 32.4246 22.3389 32.4246Z" fill="#8E3884"/>
<path d="M21.0013 51.048C19.6747 51.048 18.3481 50.5467 17.3336 49.5331C15.3159 47.5171 15.3159 44.2423 17.3336 42.2263C17.9245 41.6359 18.8832 41.6359 19.474 42.2263C20.0649 42.8166 20.0649 43.7745 19.474 44.3649C18.6379 45.2003 18.6379 46.5591 19.474 47.389C20.3101 48.2243 21.6702 48.2243 22.5007 47.389L29.0724 41.196C29.496 40.795 29.7357 40.2548 29.7413 39.67C29.7524 39.0852 29.5295 38.5394 29.117 38.1273C28.292 37.3031 26.9822 37.2863 26.1349 38.0827C25.5274 38.6564 24.5686 38.6285 23.9945 38.0215C23.4204 37.4144 23.4483 36.4565 24.0558 35.8829C26.1015 33.9504 29.2675 33.9949 31.2574 35.9887C32.2551 36.9856 32.7902 38.3055 32.7735 39.7145C32.7568 41.1236 32.1771 42.4323 31.1515 43.3958L24.6132 49.561C23.6266 50.5467 22.3168 51.0424 21.0013 51.0424V51.048Z" fill="#8E3884"/>
<path d="M26.1679 56.211C24.8413 56.211 23.5203 55.7098 22.5114 54.7018C20.4936 52.6857 20.4936 49.411 22.5114 47.3949C23.1022 46.8046 24.0609 46.8046 24.6518 47.3949C25.2426 47.9852 25.2426 48.9432 24.6518 49.5335C23.8157 50.3689 23.8157 51.7278 24.6518 52.5576C25.4879 53.393 26.8479 53.393 27.6784 52.5576C28.2693 51.9673 29.228 51.9673 29.8188 52.5576C30.4097 53.1479 30.4097 54.1059 29.8188 54.6962C28.8099 55.7042 27.4889 56.2055 26.1623 56.2055L26.1679 56.211Z" fill="#8E3884"/>
<path d="M35.2931 48.9758C34.8917 48.9758 34.4904 48.8143 34.1894 48.5024C33.6153 47.8954 33.6432 46.9375 34.2507 46.3638C34.6744 45.9628 34.914 45.4226 34.9196 44.8379C34.9308 44.2531 34.7078 43.7073 34.2953 43.2952C33.4704 42.4709 32.1605 42.4542 31.3133 43.2506C30.7057 43.8243 29.747 43.7964 29.1729 43.1894C28.5988 42.5823 28.6266 41.6244 29.2342 41.0508C31.2798 39.1182 34.4458 39.1684 36.4357 41.1566C37.4335 42.1535 37.9686 43.479 37.9518 44.8824C37.9296 46.2914 37.3554 47.6002 36.3298 48.5637C36.04 48.8421 35.661 48.9758 35.2931 48.9758Z" fill="#8E3884"/>
<path d="M31.7323 61.0003C30.35 61.0003 29.0513 60.4601 28.0758 59.4855C26.0581 57.4694 26.0581 54.1947 28.0758 52.1786L29.5251 50.8141L34.8036 45.8408C36.8492 43.9083 40.0152 43.9584 42.0051 45.9466C43.0029 46.9435 43.538 48.2634 43.5213 49.6725C43.499 51.0815 42.9248 52.3902 41.8992 53.3537L35.361 59.5189C34.4134 60.4657 33.1203 61.0003 31.7379 61.0003H31.7323ZM31.6041 53.014L30.1884 54.3506C29.3857 55.1526 29.3857 56.5115 30.2218 57.3469C31.03 58.1544 32.4402 58.1544 33.2485 57.3469L39.8202 51.1539C40.2438 50.7529 40.4835 50.2127 40.489 49.6279C40.4946 49.0431 40.2772 48.4973 39.8647 48.0852C39.0398 47.261 37.7299 47.2443 36.8827 48.0407L31.6041 53.014Z" fill="#8E3884"/>
<path d="M34.5121 13.7226C33.9157 13.7226 33.3472 13.3662 33.1075 12.7759C30.7107 6.85018 25.0308 3.0241 18.6431 3.0241C17.807 3.0241 17.127 2.34465 17.127 1.50927C17.127 0.673879 17.807 0 18.6431 0C26.2738 0 33.0573 4.57235 35.9168 11.6397C36.2289 12.4139 35.8554 13.2994 35.0807 13.6112C34.8967 13.6836 34.7016 13.7226 34.5121 13.7226Z" fill="#8E3884"/>
<path d="M6.45455 32.1234C6.06437 32.1234 5.67419 31.9731 5.3732 31.6723C0.0222017 26.2423 -1.46047 18.4788 1.50487 11.4058C4.4535 4.37186 11.0196 0 18.6448 0C19.4809 0 20.1609 0.679449 20.1609 1.51484C20.1609 2.35022 19.4809 3.02967 18.6448 3.02967C12.2626 3.02967 6.76669 6.68867 4.29743 12.5754C1.81144 18.5011 3.05443 25.0059 7.53032 29.5504C8.11559 30.1464 8.11001 31.1043 7.5136 31.689C7.21818 31.9786 6.83358 32.1234 6.44897 32.1234H6.45455Z" fill="#8E3884"/>
</g>
<defs>
<clipPath id="clip0_1_1095">
<rect width="69" height="61" fill="white"/>
</clipPath>
</defs>
</svg>
